Coordinates
version=1
nRows=22
nColumns=24
inDegrees=yes

Units are S.I. units (second, meters, Newtons, ...)
Angles are in degrees.

endheader
time	pelvis_tilt	pelvis_list	pelvis_rotation	pelvis_tx	pelvis_ty	pelvis_tz	hip_flexion_r	hip_adduction_r	hip_rotation_r	knee_angle_r	ankle_angle_r	subtalar_angle_r	mtp_angle_r	hip_flexion_l	hip_adduction_l	hip_rotation_l	knee_angle_l	ankle_angle_l	subtalar_angle_l	mtp_angle_l	lumbar_extension	lumbar_bending	lumbar_rotation
      1.77933333	      0.71329950	      2.99690521	     -9.27733813	      1.51716482	      1.02297789	      0.27018503	     15.98808711	     -6.45787827	     -0.16267132	    -60.25068244	      7.07468610	    -10.80858776	      1.19055215	     11.14013382	      8.70187488	     -1.65183791	    -20.81903709	     10.50296759	    -12.64973528	     -1.78954074	      0.45486601	     -5.55369583	      5.53793363
      1.78350000	      0.70189757	      2.90039318	     -9.14827031	      1.52184161	      1.02374673	      0.26982867	     16.58211742	     -6.18047190	     -0.08521309	    -59.75682661	      7.23840580	    -10.96768439	      1.12412803	     10.66499464	      8.65798692	     -1.58472431	    -20.45908930	     10.55287431	    -12.49988260	     -1.86397854	      0.35474860	     -5.46124490	      5.36094192
      1.78766667	      0.69015101	      2.80721240	     -9.01237297	      1.52653144	      1.02446667	      0.26946802	     17.15784148	     -5.91616321	     -0.02994327	    -59.21859218	      7.39472518	    -11.10374641	      1.05980907	     10.19774528	      8.61794440	     -1.51439560	    -20.10757923	     10.60143720	    -12.35589856	     -1.93595818	      0.26051647	     -5.36471098	      5.16732531
      1.79183333	      0.68268930	      2.72217484	     -8.87972418	      1.53120563	      1.02512331	      0.26912016	     17.72314323	     -5.66116466	      0.02985915	    -58.65623501	      7.56958634	    -11.20463159	      1.01481697	      9.73561048	      8.58782303	     -1.43215665	    -19.77284397	     10.64152407	    -12.23149309	     -1.98540344	      0.16005067	     -5.28430788	      5.02612750
      1.79600000	      0.65311594	      2.65328482	     -8.73312862	      1.53587982	      1.02570294	      0.26877350	     18.29865898	     -5.42833056	      0.06969869	    -58.05862021	      7.72015466	    -11.27631901	      0.99619922	      9.30068033	      8.57124184	     -1.34196975	    -19.43177428	     10.68223175	    -12.12310393	     -2.00538895	      0.11719943	     -5.21551718	      4.93623461
      1.80016667	      0.65615908	      2.55990078	     -8.57343590	      1.54056009	      1.02627669	      0.26842038	     18.81319185	     -5.17149086	      0.10768468	    -57.41237125	      7.77630485	    -11.39487346	      0.92798721	      8.83661170	      8.53661025	     -1.22185317	    -19.12332179	     10.76118300	    -12.00217210	     -2.07121286	     -0.02396761	     -5.13014973	      4.64264786
      1.80433333	      0.61377870	      2.49330297	     -8.41128438	      1.54524915	      1.02672023	      0.26807579	     19.37189601	     -4.94646651	      0.13237874	    -56.74864687	      7.91516145	    -11.42849999	      0.90809801	      8.43501205	      8.52115475	     -1.11088143	    -18.82508535	     10.80908301	    -11.90686315	     -2.09108768	     -0.05593027	     -5.06484818	      4.55717130
      1.80850000	      0.58228485	      2.39609265	     -8.22133368	      1.54987698	      1.02715118	      0.26771072	     19.89020990	     -4.69222780	      0.13840159	    -56.02959711	      7.97009107	    -11.48359179	      0.86599157	      8.03652380	      8.47768562	     -0.95637422	    -18.57021587	     10.88702498	    -11.82331961	     -2.12886826	     -0.15666473	     -4.97728544	      4.33955098
      1.81266667	      0.55136384	      2.35124760	     -8.05314317	      1.55452735	      1.02749354	      0.26737827	     20.42092083	     -4.49934368	      0.16205104	    -55.31491452	      8.05190898	    -11.49003871	      0.84453255	      7.63682677	      8.48664030	     -0.82777709	    -18.28302835	     10.95052496	    -11.73286116	     -2.14832638	     -0.19390217	     -4.93597193	      4.22607031
      1.81683333	      0.53188023	      2.26289949	     -7.84324102	      1.55915038	      1.02784453	      0.26701821	     20.89337708	     -4.26670389	      0.15405401	    -54.52443213	      8.05339719	    -11.53623323	      0.77481042	      7.24022270	      8.45412198	     -0.64494669	    -18.05406235	     11.03686948	    -11.68528331	     -2.21308481	     -0.31925134	     -4.86805392	      3.87055669
      1.82100000	      0.50454498	      2.20042924	     -7.64421448	      1.56379797	      1.02811347	      0.26667294	     21.37585668	     -4.06689607	      0.15261400	    -53.72981540	      8.08804769	    -11.51132806	      0.70936891	      6.85235556	      8.44714897	     -0.46419840	    -17.81494120	     11.11821049	    -11.63130950	     -2.27754124	     -0.38934475	     -4.81732802	      3.67797614
      1.82516667	      0.43937660	      2.14213538	     -7.41227475	      1.56839380	      1.02827246	      0.26629486	     21.88453700	     -3.88052860	      0.12208618	    -52.90777579	      8.11428677	    -11.45710774	      0.67973501	      6.52507657	      8.43884783	     -0.25940791	    -17.61011104	     11.19786052	    -11.57022583	     -2.30472718	     -0.42523807	     -4.77319848	      3.56164556
      1.82933333	      0.39795582	      2.08909523	     -7.18814570	      1.57301081	      1.02844378	      0.26593956	     22.35133271	     -3.70212663	      0.10366980	    -52.04412970	      8.07823639	    -11.44328438	      0.61732912	      6.16448043	      8.44049277	     -0.03380276	    -17.38775578	     11.26288929	    -11.56574577	     -2.36836752	     -0.49117387	     -4.73338780	      3.27230182
      1.83350000	      0.36077527	      2.03008339	     -6.95383426	      1.57763583	      1.02857686	      0.26558135	     22.79438229	     -3.52766094	      0.07462909	    -51.15714883	      8.06256877	    -11.34376315	      0.59446591	      5.81033898	      8.43158606	      0.18232349	    -17.19375825	     11.36344069	    -11.51851989	     -2.38957636	     -0.55272797	     -4.69505855	      3.18393317
      1.83766667	      0.32111360	      1.97780521	     -6.71402560	      1.58223351	      1.02867142	      0.26522162	     23.22453981	     -3.36409617	      0.04367699	    -50.22537389	      7.99537993	    -11.30009321	      0.54721235	      5.45439619	      8.43335382	      0.44389646	    -16.98879645	     11.44077030	    -11.55127728	     -2.44398358	     -0.61882503	     -4.66114690	      2.87591210
      1.84183333	      0.26668525	      1.94057027	     -6.45327149	      1.58683639	      1.02868035	      0.26483590	     23.66446509	     -3.22935259	     -0.00220243	    -49.28988345	      7.93733274	    -11.19229870	      0.50438774	      5.12740360	      8.44865754	      0.72476522	    -16.80829790	     11.52358106	    -11.56193733	     -2.50076618	     -0.66652514	     -4.64247338	      2.66544795
      1.84600000	      0.19990730	      1.90012067	     -6.19762206	      1.59141124	      1.02863194	      0.26446945	     24.10137373	     -3.09347222	     -0.04614003	    -48.32321455	      7.86295829	    -11.05272496	      0.48685800	      4.82630629	      8.45159349	      0.97394772	    -16.65367804	     11.62929553	    -11.52827911	     -2.52114706	     -0.69774764	     -4.62246674	      2.57978792
      1.85016667	      0.14149823	      1.87108838	     -5.92950916	      1.59598845	      1.02856230	      0.26409309	     24.51497677	     -2.97631391	     -0.08931265	    -47.32515274	      7.74076913	    -10.97475744	      0.45600769	      4.51102205	      8.47245907	      1.28660560	    -16.48003494	     11.70817009	    -11.58716122	     -2.57439558	     -0.74092981	     -4.61432703	      2.26805948
      1.85433333	      0.08665842	      1.84067696	     -5.66153131	      1.60059379	      1.02847085	      0.26372147	     24.90182137	     -2.86686556	     -0.13740406	    -46.29986195	      7.63852528	    -10.82572440	      0.43380252	      4.19255310	      8.48747117	      1.58131002	    -16.31769372	     11.80256414	    -11.61664103	     -2.61977588	     -0.78799676	     -4.60688462	      2.07527496
      1.85850000	      0.01863084	      1.82598741	     -5.38604219	      1.60515334	      1.02831370	      0.26334283	     25.29867529	     -2.78075848	     -0.18934060	    -45.25640359	      7.49482121	    -10.69600395	      0.41892264	      3.89661724	      8.51714916	      1.90218056	    -16.15988551	     11.88607561	    -11.66035775	     -2.66796468	     -0.82523123	     -4.61456854	      1.86593434
      1.86266667	     -0.04979459	      1.80400790	     -5.10618567	      1.60973129	      1.02812138	      0.26296309	     25.67284478	     -2.69511639	     -0.24841360	    -44.17988637	      7.34961634	    -10.55134975	      0.41281863	      3.60792269	      8.53545174	      2.21653074	    -16.03019174	     11.99343775	    -11.69682783	     -2.71694519	     -0.85930086	     -4.61898837	      1.66136225
      1.86683333	     -0.10890288	      1.78726309	     -4.82120712	      1.61428756	      1.02791381	      0.26258231	     26.02328201	     -2.62166659	     -0.30746134	    -43.08087788	      7.19168896	    -10.41118199	      0.41489660	      3.31100607	      8.55753610	      2.54268389	    -15.89306469	     12.10052597	    -11.73174353	     -2.76298852	     -0.90716911	     -4.62612120	      1.47172676
